<?xml version="1.0" encoding="iso-8859-1"?>
<!-- Generator: Adobe Illustrator 16.0.0, SVG Export Plug-In . SVG Version: 6.00 Build 0)  -->
<!DOCTYPE svg PUBLIC "-//W3C//DTD SVG 1.1//EN" "http://www.w3.org/Graphics/SVG/1.1/DTD/svg11.dtd">
<svg version="1.1" id="Capa_1" xmlns="http://www.w3.org/2000/svg" xmlns:xlink="http://www.w3.org/1999/xlink" x="0px" y="0px"
	 width="481.119px" height="481.119px" viewBox="0 0 481.119 481.119" style="enable-background:new 0 0 481.119 481.119;"
	 xml:space="preserve">
<g>
	<g id="Layer_2_31_">
		<g>
			<path fill="#fff" d="M80.13,89.836c6.763,3.805,64.945,31.734,64.945,31.734s-0.016,30.356-0.016,38.571
				c0,105.197-43.24,115.07-31.602,123.201c2.563,1.789,33.903,2.949,73.783,3.484c14.103,9.342,32.798,15.057,53.318,15.133
				c20.521-0.076,39.216-5.791,53.318-15.133c39.88-0.535,71.221-1.695,73.782-3.484c11.641-8.131-31.6-18.004-31.6-123.201
				c0-8.215-0.016-38.57-0.016-38.57s26.062-12.512,45.329-21.928v44.448c-3.342,1.97-5.689,5.452-5.689,9.603
				c0,3.674,1.864,6.788,4.583,8.846c0,0-4.832,27.166-6.395,35.154c-1.563,7.988,27.559,6.387,26.247,0
				c-1.311-6.387-6.394-35.154-6.394-35.154c2.719-2.058,4.585-5.172,4.585-8.846c0-4.15-2.339-7.633-5.679-9.603V94.104
				c4.084-2.029,7.104-3.563,8.355-4.268c6.763-3.807,7.763-9.605-1.862-14.318C360.155,56.442,260.8,7.817,250.976,3.131
				C246.877,1.178,243.474,0.268,240.56,0c-2.914,0.268-6.318,1.178-10.416,3.131c-9.824,4.686-109.18,53.311-148.151,72.387
				C72.368,80.231,73.368,86.03,80.13,89.836z"/>
			<path fill="#fff" d="M353.227,343.084c-15.685-5.656-42.989-21.961-47.666-24.477c-1.213-0.705-2.616-1.117-4.121-1.117
				c-3.282,0-6.105,1.928-7.423,4.715c-12.888,21.572-36.735,84.145-53.457,85.754c-16.722-1.609-40.57-64.182-53.457-85.754
				c-1.316-2.787-4.14-4.715-7.423-4.715c-1.504,0-2.908,0.412-4.121,1.117c-4.677,2.516-31.981,18.82-47.666,24.477
				c-52.65,18.984-76.33,38.346-76.33,51.547c0,13.188,0,86.488,0,86.488H240.56h188.997c0,0,0-73.301,0-86.488
				C429.557,381.43,405.877,362.069,353.227,343.084z"/>
		</g>
	</g>
</g>
<g>
</g>
<g>
</g>
<g>
</g>
<g>
</g>
<g>
</g>
<g>
</g>
<g>
</g>
<g>
</g>
<g>
</g>
<g>
</g>
<g>
</g>
<g>
</g>
<g>
</g>
<g>
</g>
<g>
</g>
</svg>
