<svg xmlns="http://www.w3.org/2000/svg" xmlns:xlink="http://www.w3.org/1999/xlink" version="1.1" width="256" height="256" viewBox="0 0 256 256" xml:space="preserve">

<defs>
</defs>
<g style="stroke: none; stroke-width: 0; stroke-dasharray: none; stroke-linecap: butt; stroke-linejoin: miter; stroke-miterlimit: 10; fill: none; fill-rule: nonzero; opacity: 1;" transform="translate(1.4065934065934016 1.4065934065934016) scale(2.81 2.81)" >
	<path fill="#fff" d="M 9 90 c -2.303 0 -4.606 -0.879 -6.364 -2.636 c -3.515 -3.515 -3.515 -9.214 0 -12.729 l 72 -72 c 3.516 -3.515 9.213 -3.515 12.729 0 c 3.515 3.515 3.515 9.213 0 12.728 l -72 72 C 13.606 89.121 11.303 90 9 90 z" style="stroke: none; stroke-width: 1; stroke-dasharray: none; stroke-linecap: butt; stroke-linejoin: miter; stroke-miterlimit: 10; fill: rgb(255,255,255); fill-rule: nonzero; opacity: 1;" transform=" matrix(1 0 0 1 0 0) " stroke-linecap="round" />
	<path fill="#fff" d="M 81 90 c -2.304 0 -4.606 -0.879 -6.364 -2.636 l -72 -72 c -3.515 -3.515 -3.515 -9.213 0 -12.728 c 3.515 -3.515 9.213 -3.515 12.728 0 l 72 72 c 3.515 3.515 3.515 9.214 0 12.729 C 85.606 89.121 83.304 90 81 90 z" style="stroke: none; stroke-width: 1; stroke-dasharray: none; stroke-linecap: butt; stroke-linejoin: miter; stroke-miterlimit: 10; fill: rgb(255,255,255); fill-rule: nonzero; opacity: 1;" transform=" matrix(1 0 0 1 0 0) " stroke-linecap="round" />
</g>
</svg>